{"title":"Dawn of the Planet of the Apes (2014) CamRip [RUS]","uid":10605226,"size":726188482,"categoryP":"video","categoryS":"movies","magnet":"?xt=urn:btih:9fc4ac56ead42749bf57f64d07401ef341d0eaac&amp;dn=Dawn+of+the+Planet+of+the+Apes+%282014%29+CamRip+%5BRUS%5D&amp;tr=udp%3A%2F%2Ftracker.openbittorrent.com%3A80&amp;tr=udp%3A%2F%2Fopen.demonii.com%3A1337&amp;tr=udp%3A%2F%2Ftracker.coppersurfer.tk%3A6969&amp;tr=udp%3A%2F%2Fexodus.desync.com%3A6969","seeders":2,"leechers":0,"uploader":"yfjfrj","files":1,"time":1405979058,"description":"Dawn of the Planet of the Apes (2014) CamRip\n\nLanguage - Russian!!!!\n\nIn the wake of a disaster that changed the world, the growing and genetically evolving apes find themselves at a critical point with the human race.\n\nMediaInfo:\nGeneral\nComplete name                            : C:UsersIvanDesktopP1ane7a.0bez9n.Rev0luci9.2014.D.CAMRip.700MB.avi\nFormat                                   : AVI\nFormat/Info                              : Audio Video Interleave\nFile size                                : 693 MiB\nDuration                                 : 1h 53mn\nOverall bit rate                         : 850 Kbps\nWriting application                      : VirtualDubMod 1.5.10.3 | www.virtualdub-fr.org || (build 2550/release)\nWriting library                          : VirtualDub build 35491/release\n\nVideo\nID                                       : 0\nFormat                                   : MPEG-4 Visual\nFormat profile                           : Advanced Simple@L5\nFormat settings, BVOP                    : 2\nFormat settings, QPel                    : No\nFormat settings, GMC                     : No warppoints\nFormat settings, Matrix                  : Default (H.263)\nMuxing mode                              : Packed bitstream\nCodec ID                                 : XVID\nCodec ID/Hint                            : XviD\nDuration                                 : 1h 53mn\nBit rate                                 : 713 Kbps\nWidth                                    : 640 pixels\nHeight                                   : 304 pixels\nDisplay aspect ratio                     : 2.105\nFrame rate                               : 25.000 fps\nColor space                              : YUV\nChroma subsampling                       : 4:2:0\nBit depth                                : 8 bits\nScan type                                : Progressive\nCompression mode                         : Lossy\nBits/(Pixel*Frame)                       : 0.147\nStream size                              : 580 MiB (84%)\nWriting library                          : XviD 64\n\nAudio\nID                                       : 1\nFormat                                   : MPEG Audio\nFormat version                           : Version 1\nFormat profile                           : Layer 3\nCodec ID                                 : 55\nCodec ID/Hint                            : MP3\nDuration                                 : 1h 53mn\nBit rate mode                            : Constant\nBit rate                                 : 128 Kbps\nChannel(s)                               : 2 channels\nSampling rate                            : 48.0 KHz\nCompression mode                         : Lossy\nStream size                              : 104 MiB (15%)\nAlignment                                : Aligned on interleaves\nInterleave, duration                     : 40 ms (1.00 video frame)\nInterleave, preload duration             : 504 ms\nWriting library                          : LAME3.99r\nEncoding settings                        : -m s -V 4 -q 2 -lowpass 17 -b 128\n\n\nScreenshots: &lt;a href=&quot;\nhttp://i5.imageban.ru/out/2014/07/21/33adaf39493ba0862b50fb2d90c09cd9.png&quot; rel=&quot;nofollow&quot; target=&quot;_NEW&quot;&gt;\nhttp://i5.imageban.ru/out/2014/07/21/33adaf39493ba0862b50fb2d90c09cd9.png&lt;/a&gt; &lt;a href=&quot;\nhttp://i4.imageban.ru/out/2014/07/21/b8f14a89d496a10d6d4288b9858d5190.png&quot; rel=&quot;nofollow&quot; target=&quot;_NEW&quot;&gt;\nhttp://i4.imageban.ru/out/2014/07/21/b8f14a89d496a10d6d4288b9858d5190.png&lt;/a&gt; &lt;a href=&quot;\nhttp://i5.imageban.ru/out/2014/07/21/46490f247275d7ba61d423c4744af209.png&quot; rel=&quot;nofollow&quot; target=&quot;_NEW&quot;&gt;\nhttp://i5.imageban.ru/out/2014/07/21/46490f247275d7ba61d423c4744af209.png&lt;/a&gt; &lt;a href=&quot;\nhttp://i4.imageban.ru/out/2014/07/21/14eaeb449bebd3d1e41157945728b3a0.png&quot; rel=&quot;nofollow&quot; target=&quot;_NEW&quot;&gt;\nhttp://i4.imageban.ru/out/2014/07/21/14eaeb449bebd3d1e41157945728b3a0.png&lt;/a&gt; &lt;a href=&quot;\nhttp://i5.imageban.ru/out/2014/07/21/07d1c6bef11da3567f221463cdb89534.png&quot; rel=&quot;nofollow&quot; target=&quot;_NEW&quot;&gt;\nhttp://i5.imageban.ru/out/2014/07/21/07d1c6bef11da3567f221463cdb89534.png&lt;/a&gt; &lt;a href=&quot;\nhttp://i4.imageban.ru/out/2014/07/21/59bce5a2b1f387d30b5ad0c0f9cc6cb5.png&quot; rel=&quot;nofollow&quot; target=&quot;_NEW&quot;&gt;\nhttp://i4.imageban.ru/out/2014/07/21/59bce5a2b1f387d30b5ad0c0f9cc6cb5.png&lt;/a&gt; &lt;a href=&quot;\nhttp://i5.imageban.ru/out/2014/07/21/0f70f74edcade9f484fb91b106445740.png&quot; rel=&quot;nofollow&quot; target=&quot;_NEW&quot;&gt;\nhttp://i5.imageban.ru/out/2014/07/21/0f70f74edcade9f484fb91b106445740.png&lt;/a&gt; &lt;a href=&quot;\nhttp://i5.imageban.ru/out/2014/07/21/5cb40d50244f8d50b8185d074a238a42.png&quot; rel=&quot;nofollow&quot; target=&quot;_NEW&quot;&gt;\nhttp://i5.imageban.ru/out/2014/07/21/5cb40d50244f8d50b8185d074a238a42.png&lt;/a&gt; &lt;a href=&quot;\nhttp://i5.imageban.ru/out/2014/07/21/3032a5581e8b7de86a9f192ac443e629.png&quot; rel=&quot;nofollow&quot; target=&quot;_NEW&quot;&gt;\nhttp://i5.imageban.ru/out/2014/07/21/3032a5581e8b7de86a9f192ac443e629.png&lt;/a&gt; &lt;a href=&quot;\nhttp://i5.imageban.ru/out/2014/07/21/4fbb69ea884101b27c98039ab27db01b.png&quot; rel=&quot;nofollow&quot; target=&quot;_NEW&quot;&gt;\nhttp://i5.imageban.ru/out/2014/07/21/4fbb69ea884101b27c98039ab27db01b.png&lt;/a&gt; &lt;a href=&quot;\nhttp://i4.imageban.ru/out/2014/07/21/7b22138ba009a07811dabb07e05a62ae.png&quot; rel=&quot;nofollow&quot; target=&quot;_NEW&quot;&gt;\nhttp://i4.imageban.ru/out/2014/07/21/7b22138ba009a07811dabb07e05a62ae.png&lt;/a&gt; &lt;a href=&quot;\nhttp://i5.imageban.ru/out/2014/07/21/b9e2f1d90053da16b1a69e7f1b4499b6.png&quot; rel=&quot;nofollow&quot; target=&quot;_NEW&quot;&gt;\nhttp://i5.imageban.ru/out/2014/07/21/b9e2f1d90053da16b1a69e7f1b4499b6.png&lt;/a&gt;","torrent":{"xt":"urn:btih:9fc4ac56ead42749bf57f64d07401ef341d0eaac","amp;dn":"Dawn+of+the+Planet+of+the+Apes+%282014%29+CamRip+%5BRUS%5D","amp;tr":["udp%3A%2F%2Ftracker.openbittorrent.com%3A80","udp%3A%2F%2Fopen.demonii.com%3A1337","udp%3A%2F%2Ftracker.coppersurfer.tk%3A6969","udp%3A%2F%2Fexodus.desync.com%3A6969"],"infoHash":"9fc4ac56ead42749bf57f64d07401ef341d0eaac","infoHashBuffer":{"type":"Buffer","data":[159,196,172,86,234,212,39,73,191,87,246,77,7,64,30,243,65,208,234,172]},"announce":[],"urlList":[]}}